<svg width="32" height="32" viewBox="0 0 64 64" fill="none" xmlns="http://www.w3.org/2000/svg">
  <!-- Flask outline -->
  <path d="M 26 8 L 26 20 L 18 38 Q 16 42, 18 46 L 46 46 Q 48 42, 46 38 L 38 20 L 38 8" 
        stroke="#000000" stroke-width="2.5" fill="none" stroke-linecap="round" stroke-linejoin="round"/>
  
  <!-- Flask top opening -->
  <line x1="26" y1="8" x2="38" y2="8" stroke="#000000" stroke-width="2.5" stroke-linecap="round"/>
  
  <!-- Molecular network structure inside flask -->
  <!-- Top nodes -->
  <circle cx="32" cy="24" r="2.5" fill="#000000"/>
  
  <!-- Middle layer nodes -->
  <circle cx="24" cy="30" r="2.5" fill="#000000"/>
  <circle cx="32" cy="32" r="2.5" fill="#000000"/>
  <circle cx="40" cy="30" r="2.5" fill="#000000"/>
  
  <!-- Lower layer nodes -->
  <circle cx="22" cy="38" r="2.5" fill="#000000"/>
  <circle cx="30" cy="40" r="2.5" fill="#000000"/>
  <circle cx="34" cy="40" r="2.5" fill="#000000"/>
  <circle cx="42" cy="38" r="2.5" fill="#000000"/>
  
  <!-- Connections between nodes -->
  <line x1="32" y1="24" x2="24" y2="30" stroke="#000000" stroke-width="1.8"/>
  <line x1="32" y1="24" x2="32" y2="32" stroke="#000000" stroke-width="1.8"/>
  <line x1="32" y1="24" x2="40" y2="30" stroke="#000000" stroke-width="1.8"/>
  
  <line x1="24" y1="30" x2="32" y2="32" stroke="#000000" stroke-width="1.8"/>
  <line x1="40" y1="30" x2="32" y2="32" stroke="#000000" stroke-width="1.8"/>
  
  <line x1="24" y1="30" x2="22" y2="38" stroke="#000000" stroke-width="1.8"/>
  <line x1="32" y1="32" x2="30" y2="40" stroke="#000000" stroke-width="1.8"/>
  <line x1="32" y1="32" x2="34" y2="40" stroke="#000000" stroke-width="1.8"/>
  <line x1="40" y1="30" x2="42" y2="38" stroke="#000000" stroke-width="1.8"/>
  
  <line x1="22" y1="38" x2="30" y2="40" stroke="#000000" stroke-width="1.8"/>
  <line x1="30" y1="40" x2="34" y2="40" stroke="#000000" stroke-width="1.8"/>
  <line x1="34" y1="40" x2="42" y2="38" stroke="#000000" stroke-width="1.8"/>
</svg>
